<mxfile host="app.diagrams.net" modified="2022-07-07T17:28:37.051Z" agent="5.0 (Macintosh; Intel Mac OS X 10_15_7) AppleWebKit/537.36 (KHTML, like Gecko) Chrome/103.0.0.0 Safari/537.36" etag="jg5iyhoD9WwqSGcx8Xt6" version="20.0.3" type="github">
  <diagram id="MUWp69ZW5fQ1Xmb6sGql" name="Page-1">
    <mxGraphModel dx="1248" dy="829" grid="1" gridSize="10" guides="1" tooltips="1" connect="1" arrows="1" fold="1" page="1" pageScale="1" pageWidth="850" pageHeight="1100" math="0" shadow="0">
      <root>
        <mxCell id="0" />
        <mxCell id="1" parent="0" />
        <mxCell id="0H3lGPwo9Wt1noCvqHUz-8" value="" style="rounded=0;whiteSpace=wrap;html=1;" vertex="1" parent="1">
          <mxGeometry x="80" y="500" width="320" height="340" as="geometry" />
        </mxCell>
        <mxCell id="0H3lGPwo9Wt1noCvqHUz-9" value="" style="rounded=0;whiteSpace=wrap;html=1;" vertex="1" parent="1">
          <mxGeometry x="80" y="80" width="320" height="360" as="geometry" />
        </mxCell>
        <mxCell id="0H3lGPwo9Wt1noCvqHUz-10" value="" style="rounded=0;whiteSpace=wrap;html=1;" vertex="1" parent="1">
          <mxGeometry x="480" y="80" width="320" height="360" as="geometry" />
        </mxCell>
        <mxCell id="0H3lGPwo9Wt1noCvqHUz-11" value="Log in with Spotify" style="rounded=0;whiteSpace=wrap;html=1;fillColor=#FFFFFF;" vertex="1" parent="1">
          <mxGeometry x="180" y="230" width="120" height="40" as="geometry" />
        </mxCell>
        <mxCell id="0H3lGPwo9Wt1noCvqHUz-12" value="Bopz" style="rounded=0;whiteSpace=wrap;html=1;fillColor=#FFFFFF;align=left;" vertex="1" parent="1">
          <mxGeometry x="80" y="80" width="320" height="30" as="geometry" />
        </mxCell>
        <mxCell id="0H3lGPwo9Wt1noCvqHUz-13" value="Bopz" style="rounded=0;whiteSpace=wrap;html=1;fillColor=#FFFFFF;align=left;" vertex="1" parent="1">
          <mxGeometry x="480" y="80" width="320" height="30" as="geometry" />
        </mxCell>
        <mxCell id="0H3lGPwo9Wt1noCvqHUz-14" value="Bopz" style="rounded=0;whiteSpace=wrap;html=1;fillColor=#FFFFFF;align=left;" vertex="1" parent="1">
          <mxGeometry x="80" y="480" width="320" height="30" as="geometry" />
        </mxCell>
        <mxCell id="0H3lGPwo9Wt1noCvqHUz-16" value="Start Bopping" style="rounded=1;whiteSpace=wrap;html=1;fillColor=#FFFFFF;" vertex="1" parent="1">
          <mxGeometry x="600" y="130" width="80" height="20" as="geometry" />
        </mxCell>
        <mxCell id="0H3lGPwo9Wt1noCvqHUz-17" value="Logged in as user Profile Logout" style="rounded=0;whiteSpace=wrap;html=1;fillColor=#FFFFFF;" vertex="1" parent="1">
          <mxGeometry x="620" y="80" width="180" height="30" as="geometry" />
        </mxCell>
        <mxCell id="0H3lGPwo9Wt1noCvqHUz-21" value="Logged in as user Profile Logout" style="rounded=0;whiteSpace=wrap;html=1;fillColor=#FFFFFF;" vertex="1" parent="1">
          <mxGeometry x="220" y="480" width="180" height="30" as="geometry" />
        </mxCell>
        <mxCell id="0H3lGPwo9Wt1noCvqHUz-22" value="" style="ellipse;whiteSpace=wrap;html=1;aspect=fixed;fillColor=#FFFFFF;" vertex="1" parent="1">
          <mxGeometry x="500" y="180" width="40" height="40" as="geometry" />
        </mxCell>
        <mxCell id="0H3lGPwo9Wt1noCvqHUz-23" value="Love Sosa by Chief Keef&lt;br&gt;Album Name" style="rounded=1;whiteSpace=wrap;html=1;fillColor=#FFFFFF;" vertex="1" parent="1">
          <mxGeometry x="550" y="170" width="210" height="60" as="geometry" />
        </mxCell>
        <mxCell id="0H3lGPwo9Wt1noCvqHUz-24" value="" style="verticalLabelPosition=bottom;verticalAlign=top;html=1;shape=mxgraph.basic.heart;fillColor=#FFFFFF;" vertex="1" parent="1">
          <mxGeometry x="730" y="192.5" width="20" height="15" as="geometry" />
        </mxCell>
        <mxCell id="0H3lGPwo9Wt1noCvqHUz-25" value="" style="ellipse;whiteSpace=wrap;html=1;aspect=fixed;fillColor=#FFFFFF;" vertex="1" parent="1">
          <mxGeometry x="500" y="260" width="40" height="40" as="geometry" />
        </mxCell>
        <mxCell id="0H3lGPwo9Wt1noCvqHUz-26" value="Love Sosa by Chief Keef&lt;br&gt;Album Name" style="rounded=1;whiteSpace=wrap;html=1;fillColor=#FFFFFF;" vertex="1" parent="1">
          <mxGeometry x="550" y="250" width="210" height="60" as="geometry" />
        </mxCell>
        <mxCell id="0H3lGPwo9Wt1noCvqHUz-27" value="" style="verticalLabelPosition=bottom;verticalAlign=top;html=1;shape=mxgraph.basic.heart;fillColor=#FFFFFF;" vertex="1" parent="1">
          <mxGeometry x="730" y="272.5" width="20" height="15" as="geometry" />
        </mxCell>
        <mxCell id="0H3lGPwo9Wt1noCvqHUz-28" value="" style="ellipse;whiteSpace=wrap;html=1;aspect=fixed;fillColor=#FFFFFF;" vertex="1" parent="1">
          <mxGeometry x="500" y="340" width="40" height="40" as="geometry" />
        </mxCell>
        <mxCell id="0H3lGPwo9Wt1noCvqHUz-29" value="Love Sosa by Chief Keef&lt;br&gt;Album Name" style="rounded=1;whiteSpace=wrap;html=1;fillColor=#FFFFFF;" vertex="1" parent="1">
          <mxGeometry x="550" y="330" width="210" height="60" as="geometry" />
        </mxCell>
        <mxCell id="0H3lGPwo9Wt1noCvqHUz-30" value="" style="verticalLabelPosition=bottom;verticalAlign=top;html=1;shape=mxgraph.basic.heart;fillColor=#FFFFFF;" vertex="1" parent="1">
          <mxGeometry x="730" y="352.5" width="20" height="15" as="geometry" />
        </mxCell>
        <mxCell id="0H3lGPwo9Wt1noCvqHUz-31" value="" style="ellipse;whiteSpace=wrap;html=1;aspect=fixed;fillColor=#FFFFFF;" vertex="1" parent="1">
          <mxGeometry x="100" y="520" width="60" height="60" as="geometry" />
        </mxCell>
        <mxCell id="0H3lGPwo9Wt1noCvqHUz-33" value="Username&amp;nbsp;&lt;br&gt;# of bopz&lt;br&gt;# of followers&amp;nbsp;&lt;br&gt;make bopz private" style="rounded=0;whiteSpace=wrap;html=1;fillColor=none;strokeColor=none;" vertex="1" parent="1">
          <mxGeometry x="180" y="525" width="190" height="55" as="geometry" />
        </mxCell>
        <mxCell id="0H3lGPwo9Wt1noCvqHUz-34" value="" style="ellipse;whiteSpace=wrap;html=1;aspect=fixed;fillColor=#FFFFFF;" vertex="1" parent="1">
          <mxGeometry x="110" y="610" width="40" height="40" as="geometry" />
        </mxCell>
        <mxCell id="0H3lGPwo9Wt1noCvqHUz-35" value="Love Sosa by Chief Keef&lt;br&gt;Album Name" style="rounded=1;whiteSpace=wrap;html=1;fillColor=#FFFFFF;" vertex="1" parent="1">
          <mxGeometry x="160" y="600" width="210" height="60" as="geometry" />
        </mxCell>
        <mxCell id="0H3lGPwo9Wt1noCvqHUz-36" value="" style="verticalLabelPosition=bottom;verticalAlign=top;html=1;shape=mxgraph.basic.heart;fillColor=#FFFFFF;" vertex="1" parent="1">
          <mxGeometry x="340" y="622.5" width="20" height="15" as="geometry" />
        </mxCell>
        <mxCell id="0H3lGPwo9Wt1noCvqHUz-37" value="" style="ellipse;whiteSpace=wrap;html=1;aspect=fixed;fillColor=#FFFFFF;" vertex="1" parent="1">
          <mxGeometry x="110" y="690" width="40" height="40" as="geometry" />
        </mxCell>
        <mxCell id="0H3lGPwo9Wt1noCvqHUz-38" value="Love Sosa by Chief Keef&lt;br&gt;Album Name" style="rounded=1;whiteSpace=wrap;html=1;fillColor=#FFFFFF;" vertex="1" parent="1">
          <mxGeometry x="160" y="680" width="210" height="60" as="geometry" />
        </mxCell>
        <mxCell id="0H3lGPwo9Wt1noCvqHUz-39" value="" style="verticalLabelPosition=bottom;verticalAlign=top;html=1;shape=mxgraph.basic.heart;fillColor=#FFFFFF;" vertex="1" parent="1">
          <mxGeometry x="340" y="702.5" width="20" height="15" as="geometry" />
        </mxCell>
        <mxCell id="0H3lGPwo9Wt1noCvqHUz-40" value="" style="ellipse;whiteSpace=wrap;html=1;aspect=fixed;fillColor=#FFFFFF;" vertex="1" parent="1">
          <mxGeometry x="110" y="770" width="40" height="40" as="geometry" />
        </mxCell>
        <mxCell id="0H3lGPwo9Wt1noCvqHUz-41" value="Love Sosa by Chief Keef&lt;br&gt;Album Name" style="rounded=1;whiteSpace=wrap;html=1;fillColor=#FFFFFF;" vertex="1" parent="1">
          <mxGeometry x="160" y="760" width="210" height="60" as="geometry" />
        </mxCell>
        <mxCell id="0H3lGPwo9Wt1noCvqHUz-42" value="" style="verticalLabelPosition=bottom;verticalAlign=top;html=1;shape=mxgraph.basic.heart;fillColor=#FFFFFF;" vertex="1" parent="1">
          <mxGeometry x="340" y="782.5" width="20" height="15" as="geometry" />
        </mxCell>
        <mxCell id="0H3lGPwo9Wt1noCvqHUz-43" value="" style="rounded=0;whiteSpace=wrap;html=1;" vertex="1" parent="1">
          <mxGeometry x="480" y="500" width="320" height="340" as="geometry" />
        </mxCell>
        <mxCell id="0H3lGPwo9Wt1noCvqHUz-44" value="Bopz" style="rounded=0;whiteSpace=wrap;html=1;fillColor=#FFFFFF;align=left;" vertex="1" parent="1">
          <mxGeometry x="480" y="480" width="320" height="30" as="geometry" />
        </mxCell>
        <mxCell id="0H3lGPwo9Wt1noCvqHUz-45" value="Logged in as user Profile Logout" style="rounded=0;whiteSpace=wrap;html=1;fillColor=#FFFFFF;" vertex="1" parent="1">
          <mxGeometry x="620" y="480" width="180" height="30" as="geometry" />
        </mxCell>
        <mxCell id="0H3lGPwo9Wt1noCvqHUz-46" value="" style="ellipse;whiteSpace=wrap;html=1;aspect=fixed;fillColor=#FFFFFF;" vertex="1" parent="1">
          <mxGeometry x="500" y="520" width="60" height="60" as="geometry" />
        </mxCell>
        <mxCell id="0H3lGPwo9Wt1noCvqHUz-47" value="Username&amp;nbsp;&lt;br&gt;# of bopz" style="rounded=0;whiteSpace=wrap;html=1;fillColor=none;strokeColor=none;" vertex="1" parent="1">
          <mxGeometry x="580" y="525" width="120" height="55" as="geometry" />
        </mxCell>
        <mxCell id="0H3lGPwo9Wt1noCvqHUz-48" value="" style="ellipse;whiteSpace=wrap;html=1;aspect=fixed;fillColor=#FFFFFF;" vertex="1" parent="1">
          <mxGeometry x="510" y="610" width="40" height="40" as="geometry" />
        </mxCell>
        <mxCell id="0H3lGPwo9Wt1noCvqHUz-49" value="Love Sosa by Chief Keef&lt;br&gt;Album Name" style="rounded=1;whiteSpace=wrap;html=1;fillColor=#FFFFFF;" vertex="1" parent="1">
          <mxGeometry x="560" y="600" width="210" height="60" as="geometry" />
        </mxCell>
        <mxCell id="0H3lGPwo9Wt1noCvqHUz-50" value="" style="verticalLabelPosition=bottom;verticalAlign=top;html=1;shape=mxgraph.basic.heart;fillColor=#FFFFFF;" vertex="1" parent="1">
          <mxGeometry x="740" y="622.5" width="20" height="15" as="geometry" />
        </mxCell>
        <mxCell id="0H3lGPwo9Wt1noCvqHUz-51" value="" style="ellipse;whiteSpace=wrap;html=1;aspect=fixed;fillColor=#FFFFFF;" vertex="1" parent="1">
          <mxGeometry x="510" y="690" width="40" height="40" as="geometry" />
        </mxCell>
        <mxCell id="0H3lGPwo9Wt1noCvqHUz-52" value="Love Sosa by Chief Keef&lt;br&gt;Album Name" style="rounded=1;whiteSpace=wrap;html=1;fillColor=#FFFFFF;" vertex="1" parent="1">
          <mxGeometry x="560" y="680" width="210" height="60" as="geometry" />
        </mxCell>
        <mxCell id="0H3lGPwo9Wt1noCvqHUz-53" value="" style="verticalLabelPosition=bottom;verticalAlign=top;html=1;shape=mxgraph.basic.heart;fillColor=#FFFFFF;" vertex="1" parent="1">
          <mxGeometry x="740" y="702.5" width="20" height="15" as="geometry" />
        </mxCell>
        <mxCell id="0H3lGPwo9Wt1noCvqHUz-54" value="" style="ellipse;whiteSpace=wrap;html=1;aspect=fixed;fillColor=#FFFFFF;" vertex="1" parent="1">
          <mxGeometry x="510" y="770" width="40" height="40" as="geometry" />
        </mxCell>
        <mxCell id="0H3lGPwo9Wt1noCvqHUz-55" value="Love Sosa by Chief Keef&lt;br&gt;Album Name" style="rounded=1;whiteSpace=wrap;html=1;fillColor=#FFFFFF;" vertex="1" parent="1">
          <mxGeometry x="560" y="760" width="210" height="60" as="geometry" />
        </mxCell>
        <mxCell id="0H3lGPwo9Wt1noCvqHUz-56" value="" style="verticalLabelPosition=bottom;verticalAlign=top;html=1;shape=mxgraph.basic.heart;fillColor=#FFFFFF;" vertex="1" parent="1">
          <mxGeometry x="740" y="782.5" width="20" height="15" as="geometry" />
        </mxCell>
        <mxCell id="0H3lGPwo9Wt1noCvqHUz-57" value="Follow" style="rounded=1;whiteSpace=wrap;html=1;fillColor=none;" vertex="1" parent="1">
          <mxGeometry x="710" y="537.5" width="60" height="30" as="geometry" />
        </mxCell>
      </root>
    </mxGraphModel>
  </diagram>
</mxfile>
